<svg
	xmlns="http://www.w3.org/2000/svg" style="background:transparent" viewBox="0 0 800 228.111">
	<defs>
		<style>rect{fill:white} .cls-1,.cls-2{fill:none;stroke:gray;stroke-miterlimit:10;}.cls-2{fill-rule:evenodd;}.cls-3,.cls-5{font-size:12px;font-family:ArialMT, Arial;}.cls-4{letter-spacing:-0.074em;} .cls-3{ fill:white}</style>
	</defs>
	<g id="Layer_2" data-name="Layer 2">
		<g id="Layer_1-2" data-name="Layer 1">
			<path style="fill:gray" d="M22,32A21,21,0,1,1,1,53,21.024,21.024,0,0,1,22,32m0-1A22,22,0,1,0,44,53,22,22,0,0,0,22,31Z"/>
			<line id="e2" style="stroke:gray" class="cls-1" x1="87.5" y1="53.003" x2="130.5" y2="53.003"/>
			<line id="e2" style="stroke:gray" class="cls-1" x1="150.344" y1="53.003" x2="193.344" y2="53.003"/>
			<path style="fill:gray" class="t1" d="M130,35.5v1a8,8,0,0,1,0,16v1a8.687,8.687,0,0,0,2.94-.5A9,9,0,0,0,130,35.5Z"/>
			<path style="fill:gray" class="t1" d="M132.94,53a8.687,8.687,0,0,0-2.94-.5v1a8,8,0,0,1,0,16v1A9,9,0,0,0,132.94,53Z"/>
			<path style="fill:gray" class="t1" d="M151.578,70.5v-1a8,8,0,0,1,0-16v-1a8.687,8.687,0,0,0-2.94.5,9,9,0,0,0,2.94,17.5Z"/>
			<path style="fill:gray" class="t1" d="M148.638,53a8.687,8.687,0,0,0,2.94.5v-1a8,8,0,0,1,0-16v-1a9,9,0,0,0-2.94,17.5Z"/>
			<line id="e4" style="stroke:gray" class="cls-1" x1="194.5" y1="38.503" x2="253.5" y2="38.503"/>
			<polyline id="e7" style="stroke:gray" class="cls-2" points="194.5 69.503 210.5 69.503 210.5 113.503 193.5 113.503"/>
			<polyline id="e10" style="stroke:gray" class="cls-2" points="194.625 145.097 210.625 145.097 210.625 189.097 193.625 189.097"/>
			<line id="e5" style="stroke:gray" class="cls-1" x1="253.313" y1="38.699" x2="312.313" y2="38.699"/>
			<line id="e6" style="stroke:gray" class="cls-1" x1="313.219" y1="38.25" x2="372.219" y2="38.25"/>
			<line id="e8" style="stroke:gray" class="cls-1" x1="193.641" y1="130.22" x2="252.641" y2="130.22"/>
			<line id="e9" style="stroke:gray" class="cls-1" x1="252.453" y1="130.416" x2="311.453" y2="130.416"/>
			<line id="e11" style="stroke:gray" class="cls-1" x1="194.734" y1="205.611" x2="253.734" y2="205.611"/>
			<polyline id="e12" style="stroke:gray" class="cls-2" points="312.5 114.503 298.5 114.503 298.5 54.503 313.5 54.503"/>
			<line id="e1" style="stroke:gray" class="cls-1" x1="43" y1="53.003" x2="86" y2="53.003"/>
			<polyline id="e3" style="stroke:gray" class="cls-2" points="85.313 113.55 69.313 113.55 69.313 69.55 86.313 69.55"/>
			<line class="cls-1" x1="255" y1="205.611" x2="272.798" y2="205.611"/>
			<path style="fill:gray" d="M265.963,210.411a.5.5,0,0,1,.154-.691l6.452-4.109-6.452-4.11a.5.5,0,1,1,.537-.843l7.115,4.531a.5.5,0,0,1,0,.844l-7.115,4.531a.5.5,0,0,1-.268.078A.5.5,0,0,1,265.963,210.411Z"/>
			<line class="cls-1" x1="315" y1="23.503" x2="332.798" y2="23.503"/>
			<path style="fill:gray" d="M325.963,28.3a.5.5,0,0,1,.154-.69l6.452-4.11-6.452-4.109a.5.5,0,1,1,.537-.844l7.115,4.532a.5.5,0,0,1,0,.843l-7.115,4.532a.5.5,0,0,1-.691-.154Z"/>
			<line class="cls-1" x1="313" y1="130.503" x2="330.798" y2="130.503"/>
			<path style="fill:gray" d="M323.963,135.3a.5.5,0,0,1,.154-.69l6.452-4.11-6.452-4.109a.5.5,0,1,1,.537-.844l7.115,4.532a.5.5,0,0,1,0,.843l-7.115,4.532a.5.5,0,0,1-.691-.154Z"/>
			<line class="cls-1" x1="313" y1="114.503" x2="330.798" y2="114.503"/>
			<path style="fill:gray" d="M323.963,119.3a.5.5,0,0,1,.154-.69l6.452-4.11-6.452-4.109a.5.5,0,1,1,.537-.844l7.115,4.532a.5.5,0,0,1,0,.843l-7.115,4.532a.5.5,0,0,1-.691-.154Z"/>
			<line class="cls-1" x1="313" y1="147.503" x2="330.798" y2="147.503"/>
			<path style="fill:gray" d="M323.963,152.3a.5.5,0,0,1,.154-.69l6.452-4.11-6.452-4.109a.5.5,0,1,1,.537-.844l7.115,4.532a.5.5,0,0,1,0,.843l-7.115,4.532a.5.5,0,0,1-.691-.154Z"/>
			<text class="cls-3" id="tv1" style="fill:white" transform="translate(17.438 24.503)">1</text>
			<text class="cls-3" id="tv2" style="fill:white" transform="translate(82.712 25.532)">2</text>
			<text class="cls-3" id="tv3" style="fill:white" transform="translate(190.65 25.048)">3</text>
			<text class="cls-3" id="tv4" style="fill:white" transform="translate(251.587 11.095)">4</text>
			<text class="cls-3" id="tv5" style="fill:white" transform="translate(310.806 10.813)">5</text>
			<text class="cls-3" id="tv6" style="fill:white" transform="translate(370.15 10.298)">6</text>
			<text class="cls-3" id="tv7" style="fill:white" transform="translate(83.775 100.938)">7</text>
			<text class="cls-3" id="tv8" style="fill:white" transform="translate(191.025 101.063)">8</text>
			<text class="cls-3" id="tv9" style="fill:white" transform="translate(251.15 102.548)">9</text>
			<text class="cls-3" id="tv10" style="fill:white" transform="translate(305.15 103.548)">10</text>
			<text class="cls-3" id="tv11" style="fill:white" transform="translate(187.125 177.657)">
				<tspan class="cls-4">1</tspan>
				<tspan x="5.783" y="0">1</tspan>
			</text>
			<text class="cls-3" id="tv12" style="fill:white" transform="translate(246.602 177.462)">12</text>
			<text class="cls-5" id="te1" style="fill:gray" transform="translate(59.306 49.813)">1</text>
			<text class="cls-5" id="te2" style="fill:gray" transform="translate(136.65 31.048)">2</text>
			<text class="cls-5" id="te3" style="fill:gray" transform="translate(57.962 97.438)">3</text>
			<text class="cls-5" id="te4" style="fill:gray" transform="translate(217.056 51.001)">4</text>
			<text class="cls-5" id="te5" style="fill:gray" transform="translate(279.15 51.548)">5</text>
			<text class="cls-5" id="te6" style="fill:gray" transform="translate(341.087 51.556)">6</text>
			<text class="cls-5" id="te8" style="fill:gray" transform="translate(219.603 143.274)">8</text>
			<text class="cls-5" id="te9" style="fill:gray" transform="translate(281.697 143.821)">9</text>
			<text class="cls-5" id="te11" style="fill:gray" transform="translate(219.65 219.048)">
				<tspan class="cls-4">1</tspan>
				<tspan x="5.783" y="0">1</tspan>
			</text>
			<text class="cls-5" id="te7" style="fill:gray" transform="translate(215.15 97.048)">7</text>
			<text class="cls-5" id="te10" style="fill:gray" transform="translate(214.758 172.798)">10</text>
			<text class="cls-5" id="te12" style="fill:gray" transform="translate(281.313 88.798)">12</text>
			
			<rect id="v11" style="fill:white" x="192.125" y="182.597" width="4" height="45"/>
			<rect id="v3" style="fill:white" x="192" y="31.003" width="4" height="45"/>
			<rect id="v4" style="fill:white" x="253" y="16.003" width="4" height="45"/>
			<rect id="v2" style="fill:white" x="84" y="31.003" width="4" height="45"/>
			<rect id="v8" style="fill:white" x="192" y="107.003" width="4" height="45"/>
			<rect id="v5" style="fill:white" x="311.813" y="16.199" width="4" height="45"/>
			<rect id="v9" style="fill:white" x="252.141" y="107.72" width="4" height="45"/>
			<rect id="v6" style="fill:white" x="371.719" y="15.75" width="4" height="45"/>
			<rect id="v7" style="fill:white" x="84" y="106.003" width="4" height="45"/>
			<rect id="v12" style="fill:white" x="253.234" y="183.111" width="4" height="45"/>
			<rect id="v10" style="fill:white" x="310.953" y="107.916" width="4" height="45"/>
		</g>
	</g>
</svg>